<?xml version="1.0" encoding="UTF-8" standalone="no"?><!DOCTYPE svg PUBLIC "-//W3C//DTD SVG 1.1//EN" "http://www.w3.org/Graphics/SVG/1.1/DTD/svg11.dtd"><svg width="100%" height="100%" viewBox="0 0 1085 451" version="1.1" xmlns="http://www.w3.org/2000/svg" xmlns:xlink="http://www.w3.org/1999/xlink" xml:space="preserve" xmlns:serif="http://www.serif.com/" style="fill-rule:evenodd;clip-rule:evenodd;stroke-linejoin:round;stroke-miterlimit:2;"><path d="M778.862,216.51l-29.353,-0l0,-36.744l-27.863,-0l-0,36.744l-29.282,-0l0,27.863l29.282,0l-0,92.953l27.863,0l0,-92.953l29.353,0l-0,-27.863Z" style="fill:#ef4134;fill-rule:nonzero;"/><path d="M873.046,216.51l-29.352,-0l-0,-36.744l-27.864,-0l0,36.744l-29.281,-0l0,27.863l29.281,0l0,92.953l27.864,0l-0,-92.953l29.352,0l0,-27.863Z" style="fill:#ef4134;fill-rule:nonzero;"/><path d="M1005.84,274.698l-0,59.632l27.872,0l-0,-59.632c-0,-18.432 14.942,-33.374 33.374,-33.374l-0,-27.872c-33.824,0.004 -61.242,27.422 -61.246,61.246Z" style="fill:#ef4134;fill-rule:nonzero;"/><path d="M501.792,335.944c-33.822,-0.005 -61.238,-27.424 -61.238,-61.246l0,-94.932l27.864,-0l-0,33.686l33.374,-0c33.825,-0 61.246,27.421 61.246,61.246c-0,33.825 -27.421,61.246 -61.246,61.246Zm-0,-94.62l-33.374,0l-0,33.374c0.015,18.437 14.973,33.371 33.409,33.356c18.437,-0.015 33.371,-14.973 33.356,-33.41c-0.014,-18.429 -14.962,-33.36 -33.391,-33.356l-0,0.036Z" style="fill:#ef4134;fill-rule:nonzero;"/><path d="M631.235,213.456c-33.823,-0.408 -61.573,26.68 -61.981,60.503c-0.408,33.822 26.68,61.572 60.503,61.981c0.492,0.006 0.985,0.006 1.478,-0l34.337,-0l-0,-27.891l-34.337,0c-13.571,-0 -25.791,-8.216 -30.913,-20.784l92.15,0l0,-12.589c-0.009,-33.814 -27.423,-61.22 -61.237,-61.22Zm-29.682,45.973c8.431,-16.391 28.552,-22.844 44.943,-14.413c6.19,3.184 11.229,8.223 14.413,14.413l-59.356,-0Z" style="fill:#ef4134;fill-rule:nonzero;"/><path d="M935.736,213.456c-33.823,-0.408 -61.573,26.68 -61.981,60.503c-0.409,33.822 26.679,61.572 60.502,61.981c0.493,0.006 0.986,0.006 1.479,-0l34.336,-0l0,-27.891l-34.336,0c-13.571,-0 -25.791,-8.216 -30.913,-20.784l92.15,0l0,-12.589c-0.01,-33.814 -27.424,-61.22 -61.237,-61.22Zm-29.683,45.973c8.431,-16.391 28.553,-22.844 44.944,-14.413c6.189,3.184 11.229,8.223 14.412,14.413l-59.356,-0Z" style="fill:#ef4134;fill-rule:nonzero;"/><path d="M234.555,424.804c-14.534,-2.354 -28.319,-6.348 -40.686,-14.569c-10.539,-7.008 -17.057,-16.888 -21.916,-28.434c-13.508,-32.099 -27.489,-64.037 -41.283,-96.038c-0.722,-1.685 -2.443,-3.682 -0.214,-5.145c2.23,-1.462 3.469,0.892 4.673,2.247c20.133,22.624 40.245,45.262 60.336,67.916c10.658,11.977 21.358,23.922 32.099,35.835c0.892,1.016 1.685,2.862 3.451,2.255c1.364,-0.463 1.355,-2.157 1.712,-3.414c8.821,-31.552 17.639,-63.104 26.454,-94.656c1.516,-5.43 3.014,-5.894 6.973,-2.015c22.927,22.439 45.836,44.89 68.727,67.354c0.74,0.731 1.462,1.471 2.193,2.211c2.381,2.416 3.656,1.783 4.298,-1.409c2.378,-11.924 4.809,-23.836 7.294,-35.737c6.937,-33.674 13.882,-67.351 20.837,-101.03c0.125,-0.58 0.428,-1.124 0.499,-1.703c0.188,-1.481 0.678,-2.604 2.408,-2.622c1.73,-0.018 2.077,1.302 2.247,2.675c1.114,8.979 2.273,17.949 3.37,26.927c2.883,23.557 5.742,47.114 8.578,70.671c1.453,12.171 4.173,24.306 -0.669,36.459c-5.35,13.29 -13.85,25.08 -24.77,34.355c-26.116,22.701 -57.198,33.534 -91,37.992c-11.118,1.097 -26.026,1.427 -35.611,-0.125Z" style="fill:#ef4134;fill-rule:nonzero;"/><path d="M155.199,24.399c4.762,1.89 6.875,5.769 8.587,10.369c12.144,32.777 24.41,65.512 36.797,98.205c1.133,3.014 0.83,4.315 -2.371,5.457c-8.087,2.889 -8.025,3.04 -11.413,-4.842c-13.202,-30.446 -26.41,-60.898 -39.624,-91.357c-4.254,-9.808 -3.986,-11.056 3.566,-17.832l4.458,-0Z" style="fill:#ef4134;fill-rule:nonzero;"/><path d="M16.996,228.583c2.898,-6.001 7.775,-7.383 14.15,-7.178c25.055,0.794 50.128,1.204 75.201,1.658c2.505,0.045 3.468,0.446 3.629,3.362c-0,0.428 0.08,0.892 0.142,1.328c1.195,9.327 1.195,9.318 -8.506,9.594c-23.575,0.678 -47.158,1.186 -70.724,2.176c-6.482,0.276 -11.217,-1.132 -13.892,-7.374l0,-3.566Z" style="fill:#ef4134;fill-rule:nonzero;"/><path d="M281.713,142.005c-0.758,10.147 -1.436,20.151 -10.2,27.043c-8.765,6.893 -18.635,3.799 -28.426,2.55c2.925,2.675 5.921,5.101 8.444,8.025c8.15,9.434 8.328,17.405 0.535,27.043c-3.236,4.004 -7.133,7.365 -11.154,11.119c4.895,0.428 9.086,-1.436 13.499,-1.694c18.412,-1.097 24.797,3.709 28.434,21.675c0.321,1.597 0.66,3.193 1.088,5.279c2.113,-5.189 2.996,-10.307 5.189,-14.997c5.074,-10.825 12.029,-14.204 23.852,-11.271c3.566,0.892 7.061,1.9 11.145,3.005c-2.077,-4.93 -4.315,-9.201 -5.064,-14.034c-1.026,-6.58 0.891,-10.575 6.91,-13.883c5.599,-3.049 11.832,-4.618 18.778,-7.784c-5.529,-0.624 -9.996,0 -14.356,-0.891c-7.079,-1.445 -9.398,-5.751 -5.537,-11.797c5.68,-8.862 13.847,-15.407 21.711,-22.192c1.9,-1.641 2.934,-0.179 4.075,0.954c11.823,11.716 14.997,25.59 9.808,41.264c-4.699,14.267 -14.195,25.296 -25.349,34.89c-25.857,22.211 -56.351,34.774 -89.163,42.281c-16.356,3.86 -33.13,5.657 -49.932,5.35c-18.679,-0.437 -36.993,-2.996 -53.97,-11.511c-9.612,-4.815 -17.788,-11.288 -22.933,-21.016c-2.452,-4.636 -2.131,-5.198 2.925,-5.35c16.325,-0.508 32.66,-0.945 48.986,-1.542c1.896,-0.132 3.739,0.666 4.94,2.14c3.899,4.045 10.339,4.163 14.385,0.264c4.045,-3.899 4.163,-10.34 0.264,-14.385c-3.9,-4.045 -10.34,-4.164 -14.385,-0.264c-0.041,0.039 -0.082,0.079 -0.122,0.119c-1.988,2.095 -3.976,2.568 -6.634,2.505c-16.637,-0.401 -33.266,-0.811 -49.931,-0.891c-4.253,-0 -4.966,-1.659 -4.315,-5.35c2.327,-13.214 9.094,-24.074 18.011,-33.677c15.817,-17.111 35.38,-28.693 56.484,-37.984c2.31,-1.016 3.389,-0.606 4.352,1.721c3.013,7.267 6.179,14.471 9.397,21.64c0.608,1.337 0.518,2.888 -0.24,4.146c-2.675,5.93 -0.571,11.591 5.055,14.106c5.119,2.219 11.068,-0.131 13.287,-5.25c0.037,-0.083 0.072,-0.167 0.105,-0.252c2.283,-5.349 -0.151,-11.1 -5.911,-13.428c-1.69,-0.526 -3.019,-1.839 -3.567,-3.522c-2.567,-7.133 -5.189,-14.212 -8.024,-21.229c-1.079,-2.675 -0.277,-3.567 2.238,-4.405c32.758,-10.539 66.052,-15.63 100.398,-9.915c4.226,0.696 8.363,1.846 12.545,2.8c1.926,0.446 2.996,1.061 1.284,3.192c-5.947,7.409 -11.859,14.863 -19.277,20.9c-5.582,4.538 -10.218,3.664 -13.892,-2.55c-1.134,-2.083 -2.146,-4.229 -3.032,-6.429c-0.927,-2.176 -1.801,-4.351 -2.71,-6.518Z" style="fill:#ef4134;fill-rule:nonzero;"/><path d="M291.423,198.267c-5.904,0.244 -10.888,-4.345 -11.132,-10.249c-0.002,-0.043 -0.003,-0.086 -0.005,-0.129c-0.205,-5.769 4.111,-10.861 9.915,-11.003c2.342,0.01 4.546,-1.109 5.921,-3.005c27.89,-32.693 55.828,-65.386 83.813,-98.08c3.174,-3.7 6.01,-7.694 9.719,-10.94c4.271,-3.727 9.166,-3.923 12.67,-0.348c3.692,3.754 3.861,9.041 0.116,13.17c-5.18,5.706 -10.557,11.252 -15.862,16.852c-19.093,20.133 -38.192,40.266 -57.296,60.399c-8.471,8.916 -16.95,17.832 -25.439,26.749c-1.319,1.382 -2.22,2.452 -1.863,4.886c0.891,6.215 -4.342,11.618 -10.557,11.698Z" style="fill:#ef4134;fill-rule:nonzero;"/></svg>